<svg width="284" height="284" viewBox="0 0 284 284" fill="none" xmlns="http://www.w3.org/2000/svg">
<path d="M172.081 104.696L140.877 73.4919L109.674 104.696L140.877 135.9L172.081 104.696Z" fill="white"/>
<path d="M135.968 140.809L104.765 109.605L73.561 140.809L104.765 172.012L135.968 140.809Z" fill="white"/>
<path d="M208.193 140.809L176.99 109.605L145.786 140.809L176.99 172.012L208.193 140.809Z" fill="white"/>
<path d="M172.081 176.921L140.877 145.718L109.674 176.921L140.877 208.125L172.081 176.921Z" fill="white"/>
<path d="M230.384 146.84L146.909 230.315H134.846L53.0811 148.55V133.067L132.999 53.1499H148.756L230.384 134.777V146.84ZM221.337 140.809L140.877 60.3489L60.4181 140.809L140.877 221.268L221.337 140.809Z" fill="white"/>
</svg>
